
<svg xmlns="http://www.w3.org/2000/svg" xmlns:xlink="http://www.w3.org/1999/xlink" width="810" zoomAndPan="magnify" viewBox="0 0 810 809.999993" height="810" preserveAspectRatio="xMidYMid meet" version="1.0"><path fill="#ff5a1b" d="M 392.609375 303.238281 C 384.664062 292.277344 378.546875 280.667969 374.257812 268.410156 C 365.039062 242.09375 367.507812 213.667969 379.5625 188.390625 C 383.867188 179.34375 393.9375 166.214844 404.957031 176.277344 C 410.851562 181.664062 414.53125 190.570312 417.070312 198.160156 C 425.667969 223.851562 425.214844 248.875 415.707031 273.242188 C 411.460938 284.117188 406.253906 293.933594 400.085938 302.695312 C 399.917969 302.929688 399.839844 303.195312 399.847656 303.484375 C 399.855469 303.777344 399.953125 304.035156 400.132812 304.265625 C 413.507812 321.261719 428.71875 335.792969 445.761719 347.863281 C 446.121094 348.113281 446.519531 348.242188 446.960938 348.246094 C 447.398438 348.246094 447.800781 348.125 448.160156 347.871094 C 457.105469 341.652344 466.734375 336.496094 477.046875 332.414062 C 501.273438 322.804688 527.199219 322.953125 551.492188 332.472656 C 560.574219 336.023438 582.226562 346.441406 572.46875 359.699219 C 569.273438 364.035156 563.964844 366.585938 559.097656 368.949219 C 553.234375 371.800781 546.347656 373.554688 540.152344 375.078125 C 507.632812 383.105469 475.121094 374.269531 447.734375 355.84375 C 447.476562 355.671875 447.191406 355.582031 446.882812 355.582031 C 446.574219 355.582031 446.292969 355.671875 446.039062 355.84375 C 430.953125 366.152344 417.941406 378.914062 406.996094 394.136719 C 404.945312 396.996094 402.921875 399.867188 400.929688 402.753906 C 400.574219 403.269531 400.554688 403.792969 400.871094 404.320312 C 406.230469 413.289062 410.984375 422.652344 415.128906 432.414062 C 425.121094 455.957031 425.820312 480.132812 417.230469 504.945312 C 414.4375 513.007812 408.289062 527.914062 398.113281 528.515625 C 393.046875 528.820312 388.632812 526.621094 384.882812 521.914062 C 375.410156 510.019531 370.574219 494.480469 368.789062 479.265625 C 365.570312 451.839844 378.109375 426.808594 393.128906 404.738281 C 393.351562 404.414062 393.464844 404.054688 393.46875 403.664062 C 393.46875 403.273438 393.363281 402.914062 393.140625 402.589844 C 380.574219 383.832031 364.707031 368.042969 345.542969 355.222656 C 345.316406 355.070312 345.070312 354.996094 344.804688 354.996094 C 344.535156 354.996094 344.289062 355.070312 344.066406 355.222656 C 335.273438 361.035156 325.992188 365.933594 316.214844 369.90625 C 294.003906 378.9375 271.464844 380.335938 248.597656 374.105469 C 239.300781 371.570312 229.898438 368.269531 222.734375 362.328125 C 217.59375 358.066406 216.351562 353.035156 219.007812 347.226562 C 221.765625 341.191406 231.824219 335.980469 238.179688 333.359375 C 255.007812 326.414062 272.316406 323.96875 290.109375 326.023438 C 297.414062 326.859375 304.902344 328.71875 312.570312 331.59375 C 323.542969 335.71875 333.875 341.046875 343.558594 347.585938 C 343.910156 347.824219 344.296875 347.949219 344.726562 347.957031 C 345.152344 347.96875 345.550781 347.863281 345.921875 347.640625 C 364.480469 336.476562 380.042969 321.996094 392.609375 304.207031 C 392.714844 304.058594 392.765625 303.894531 392.765625 303.71875 C 392.765625 303.539062 392.714844 303.378906 392.609375 303.238281 Z M 409.316406 274.109375 C 420.414062 247.457031 420.410156 220.585938 409.304688 193.488281 C 407.125 188.183594 403.8125 181.605469 398.585938 178.664062 C 392.585938 175.296875 385.125 189.429688 383.382812 193.421875 C 369.992188 224.070312 371.195312 254.105469 386.992188 283.53125 C 389.546875 288.292969 392.449219 293.164062 395.703125 298.136719 C 395.769531 298.242188 395.863281 298.308594 395.984375 298.332031 C 396.105469 298.359375 396.214844 298.335938 396.3125 298.265625 C 396.460938 298.164062 396.578125 298.046875 396.671875 297.90625 C 401.664062 290.308594 405.878906 282.375 409.316406 274.109375 Z M 399.761719 394.585938 C 410.816406 378.347656 424.359375 364.449219 440.394531 352.878906 C 441.28125 352.242188 441.285156 351.597656 440.40625 350.953125 C 423.792969 338.761719 409.230469 324.753906 396.71875 308.925781 C 396.480469 308.632812 396.253906 308.640625 396.039062 308.949219 C 384.085938 325.761719 369.136719 339.757812 351.195312 350.941406 C 351.070312 351.015625 350.972656 351.117188 350.902344 351.238281 C 350.828125 351.363281 350.792969 351.5 350.789062 351.640625 C 350.785156 351.785156 350.816406 351.921875 350.882812 352.046875 C 350.949219 352.175781 351.039062 352.28125 351.160156 352.359375 C 369.042969 364.480469 384.167969 379.585938 396.542969 397.675781 C 396.960938 398.285156 397.410156 398.308594 397.894531 397.746094 C 398.65625 396.847656 399.082031 395.589844 399.761719 394.585938 Z M 237.441406 339.832031 C 233.105469 341.792969 229.1875 344.34375 225.6875 347.480469 C 216.421875 355.785156 234.316406 363.378906 239.53125 365.339844 C 256.035156 371.53125 272.507812 373.601562 288.941406 371.546875 C 295.6875 370.707031 302.90625 368.871094 310.597656 366.03125 C 320.078125 362.53125 329.503906 357.824219 338.871094 351.910156 C 338.9375 351.871094 338.992188 351.816406 339.03125 351.75 C 339.066406 351.683594 339.085938 351.609375 339.089844 351.535156 C 339.089844 351.457031 339.074219 351.382812 339.035156 351.316406 C 339 351.246094 338.949219 351.191406 338.882812 351.148438 C 324.996094 342.207031 308.429688 334.292969 292.4375 331.953125 C 273.503906 329.183594 255.171875 331.808594 237.441406 339.832031 Z M 452.832031 352.578125 C 463.507812 359.316406 474.492188 364.464844 485.78125 368.027344 C 508.957031 375.339844 532.839844 373.367188 555.242188 364.53125 C 559.777344 362.742188 566.859375 359.203125 569.0625 354.425781 C 571.476562 349.210938 559.59375 342.347656 555.96875 340.59375 C 538.019531 331.902344 519.167969 329.019531 499.417969 331.941406 C 483.164062 334.339844 466.859375 342.242188 452.820312 351.390625 C 452.71875 351.457031 452.640625 351.542969 452.582031 351.648438 C 452.527344 351.753906 452.5 351.867188 452.5 351.988281 C 452.5 352.109375 452.53125 352.222656 452.589844 352.328125 C 452.648438 352.433594 452.730469 352.515625 452.832031 352.578125 Z M 395.875 410.632812 C 382.332031 431.527344 370.839844 454.726562 374.464844 480.117188 C 376.210938 492.410156 379.691406 503.085938 384.90625 512.15625 C 386.910156 515.65625 389.246094 518.585938 391.90625 520.945312 C 401.527344 529.484375 409.246094 510.5625 411.472656 504.414062 C 420.054688 480.664062 419.644531 457.632812 410.238281 435.320312 C 406.6875 426.890625 402.511719 418.410156 397.722656 409.882812 C 397.628906 409.710938 397.484375 409.605469 397.296875 409.566406 C 397.105469 409.523438 396.933594 409.558594 396.777344 409.675781 C 396.414062 409.945312 396.113281 410.261719 395.875 410.632812 Z M 395.875 410.632812 " fill-opacity="1" fill-rule="nonzero"/><path fill="#ff5a1b" d="M 293.800781 602.613281 L 293.914062 618.386719 C 293.917969 618.644531 293.828125 618.867188 293.644531 619.054688 C 293.460938 619.238281 293.242188 619.332031 292.980469 619.332031 L 237.351562 619.285156 C 237.09375 619.285156 236.871094 619.195312 236.691406 619.011719 C 236.507812 618.828125 236.414062 618.609375 236.414062 618.351562 L 236.542969 564.265625 C 236.542969 564.007812 236.632812 563.789062 236.816406 563.605469 C 237 563.421875 237.21875 563.332031 237.476562 563.332031 L 256.28125 563.320312 C 256.539062 563.320312 256.761719 563.410156 256.941406 563.59375 C 257.125 563.777344 257.214844 563.996094 257.214844 564.253906 L 257.238281 600.769531 C 257.238281 601.027344 257.332031 601.246094 257.511719 601.429688 C 257.695312 601.613281 257.914062 601.703125 258.175781 601.703125 L 292.863281 601.691406 C 293.121094 601.691406 293.339844 601.78125 293.519531 601.960938 C 293.703125 602.140625 293.796875 602.359375 293.800781 602.613281 Z M 293.800781 602.613281 " fill-opacity="1" fill-rule="nonzero"/><path fill="#ff5a1b" d="M 297.414062 563.304688 L 316.242188 563.335938 C 316.5 563.335938 316.726562 563.429688 316.910156 563.613281 C 317.09375 563.800781 317.183594 564.023438 317.183594 564.285156 L 317.089844 618.390625 C 317.089844 618.652344 316.996094 618.875 316.8125 619.058594 C 316.628906 619.246094 316.402344 619.335938 316.144531 619.335938 L 297.316406 619.304688 C 297.054688 619.300781 296.832031 619.210938 296.648438 619.023438 C 296.460938 618.839844 296.371094 618.617188 296.371094 618.355469 L 296.464844 564.25 C 296.464844 563.988281 296.558594 563.765625 296.742188 563.578125 C 296.929688 563.394531 297.152344 563.304688 297.414062 563.304688 Z M 297.414062 563.304688 " fill-opacity="1" fill-rule="nonzero"/><path fill="#ff5a1b" d="M 369.746094 619.320312 L 356.582031 619.273438 C 356.425781 619.269531 356.3125 619.203125 356.234375 619.066406 L 341.816406 593.789062 C 341.714844 593.597656 341.558594 593.527344 341.351562 593.585938 C 341.140625 593.644531 341.042969 593.78125 341.054688 593.996094 L 341.109375 618.902344 C 341.109375 619.015625 341.070312 619.109375 340.992188 619.191406 C 340.914062 619.269531 340.820312 619.308594 340.707031 619.308594 L 320.667969 619.296875 C 320.554688 619.296875 320.460938 619.257812 320.382812 619.179688 C 320.304688 619.097656 320.265625 619.003906 320.265625 618.890625 L 320.242188 563.769531 C 320.242188 563.660156 320.28125 563.5625 320.359375 563.484375 C 320.4375 563.40625 320.535156 563.367188 320.644531 563.367188 L 345.609375 563.296875 C 345.769531 563.296875 345.890625 563.363281 345.96875 563.503906 L 362.835938 594.664062 C 362.910156 594.808594 363.03125 594.882812 363.191406 594.882812 C 363.355469 594.882812 363.472656 594.808594 363.550781 594.664062 L 380.371094 563.527344 C 380.449219 563.386719 380.566406 563.320312 380.726562 563.320312 L 405.671875 563.296875 C 405.78125 563.296875 405.878906 563.335938 405.957031 563.414062 C 406.035156 563.496094 406.074219 563.589844 406.074219 563.699219 L 405.992188 618.902344 C 405.992188 619.015625 405.953125 619.109375 405.875 619.191406 C 405.796875 619.269531 405.699219 619.308594 405.589844 619.308594 L 385.6875 619.308594 C 385.578125 619.308594 385.480469 619.269531 385.402344 619.191406 C 385.324219 619.109375 385.285156 619.015625 385.285156 618.902344 L 385.308594 594.03125 C 385.300781 593.828125 385.203125 593.703125 385.007812 593.652344 C 384.8125 593.601562 384.660156 593.660156 384.558594 593.835938 L 370.089844 619.113281 C 370.015625 619.246094 369.902344 619.316406 369.746094 619.320312 Z M 369.746094 619.320312 " fill-opacity="1" fill-rule="nonzero"/><path fill="#ff5a1b" d="M 470.863281 588.5625 C 475.386719 592.796875 478.363281 596.59375 478.46875 602.972656 C 478.652344 613.125 470.898438 619.296875 461.148438 619.285156 C 445.054688 619.261719 428.101562 619.308594 410.296875 619.421875 C 410.160156 619.425781 410.023438 619.398438 409.898438 619.347656 C 409.769531 619.296875 409.65625 619.21875 409.558594 619.121094 C 409.460938 619.023438 409.386719 618.910156 409.335938 618.785156 C 409.28125 618.65625 409.257812 618.523438 409.257812 618.386719 L 409.429688 564.152344 C 409.429688 563.925781 409.511719 563.730469 409.667969 563.570312 C 409.824219 563.410156 410.015625 563.332031 410.238281 563.332031 C 424.550781 563.324219 440.578125 563.332031 458.3125 563.355469 C 464.335938 563.367188 471.671875 565.257812 473.621094 571.730469 C 475.351562 577.5 474.402344 582.695312 470.773438 587.316406 C 470.621094 587.507812 470.554688 587.722656 470.574219 587.960938 C 470.589844 588.199219 470.6875 588.402344 470.863281 588.5625 Z M 453.542969 579.324219 C 453.539062 579.023438 453.480469 578.734375 453.363281 578.457031 C 453.242188 578.179688 453.078125 577.933594 452.863281 577.722656 C 452.648438 577.511719 452.398438 577.351562 452.121094 577.238281 C 451.839844 577.125 451.550781 577.070312 451.25 577.070312 L 432.5625 577.234375 C 432.257812 577.238281 431.96875 577.296875 431.691406 577.414062 C 431.414062 577.53125 431.171875 577.699219 430.960938 577.914062 C 430.75 578.128906 430.585938 578.375 430.472656 578.65625 C 430.359375 578.933594 430.304688 579.226562 430.308594 579.527344 L 430.316406 580.679688 C 430.320312 580.980469 430.378906 581.269531 430.5 581.546875 C 430.617188 581.828125 430.78125 582.070312 430.996094 582.28125 C 431.210938 582.492188 431.460938 582.65625 431.738281 582.769531 C 432.019531 582.882812 432.308594 582.9375 432.609375 582.933594 L 451.300781 582.769531 C 451.601562 582.769531 451.890625 582.707031 452.167969 582.589844 C 452.445312 582.472656 452.6875 582.304688 452.902344 582.089844 C 453.113281 581.875 453.273438 581.628906 453.386719 581.347656 C 453.5 581.070312 453.554688 580.777344 453.550781 580.476562 Z M 457.546875 600.46875 C 457.546875 600.1875 457.492188 599.921875 457.386719 599.664062 C 457.277344 599.40625 457.125 599.179688 456.929688 598.984375 C 456.730469 598.789062 456.503906 598.636719 456.246094 598.53125 C 455.988281 598.425781 455.71875 598.375 455.441406 598.375 L 432.367188 598.457031 C 432.089844 598.457031 431.820312 598.511719 431.566406 598.617188 C 431.308594 598.726562 431.082031 598.878906 430.886719 599.074219 C 430.6875 599.273438 430.539062 599.5 430.433594 599.757812 C 430.328125 600.015625 430.273438 600.285156 430.277344 600.5625 L 430.28125 601.96875 C 430.28125 602.25 430.335938 602.515625 430.441406 602.773438 C 430.550781 603.03125 430.703125 603.257812 430.902344 603.453125 C 431.097656 603.648438 431.324219 603.800781 431.582031 603.90625 C 431.839844 604.011719 432.109375 604.0625 432.386719 604.0625 L 455.460938 603.980469 C 455.738281 603.980469 456.007812 603.925781 456.265625 603.820312 C 456.519531 603.710938 456.746094 603.558594 456.945312 603.359375 C 457.140625 603.164062 457.289062 602.9375 457.394531 602.679688 C 457.5 602.421875 457.554688 602.152344 457.554688 601.875 Z M 457.546875 600.46875 " fill-opacity="1" fill-rule="nonzero"/><path fill="#ff5a1b" d="M 506.683594 609.582031 L 503.292969 618.890625 C 503.195312 619.171875 503 619.308594 502.707031 619.308594 L 481.132812 619.320312 C 481.027344 619.320312 480.929688 619.296875 480.835938 619.246094 C 480.742188 619.195312 480.667969 619.128906 480.609375 619.042969 C 480.550781 618.953125 480.519531 618.859375 480.507812 618.753906 C 480.5 618.652344 480.515625 618.550781 480.554688 618.453125 L 503.222656 563.710938 C 503.332031 563.457031 503.523438 563.332031 503.800781 563.332031 L 533.726562 563.308594 C 534.003906 563.308594 534.195312 563.433594 534.304688 563.691406 L 557.007812 618.464844 C 557.050781 618.5625 557.066406 618.664062 557.054688 618.765625 C 557.042969 618.871094 557.011719 618.964844 556.953125 619.054688 C 556.894531 619.140625 556.820312 619.207031 556.726562 619.257812 C 556.632812 619.308594 556.535156 619.332031 556.429688 619.332031 L 534.859375 619.308594 C 534.5625 619.308594 534.367188 619.167969 534.269531 618.890625 L 530.945312 609.617188 C 530.847656 609.339844 530.652344 609.203125 530.359375 609.203125 L 507.273438 609.167969 C 506.980469 609.167969 506.785156 609.304688 506.683594 609.582031 Z M 512.441406 594.203125 C 512.414062 594.269531 512.40625 594.339844 512.414062 594.414062 C 512.421875 594.484375 512.445312 594.550781 512.484375 594.609375 C 512.527344 594.671875 512.578125 594.71875 512.640625 594.75 C 512.707031 594.785156 512.773438 594.804688 512.847656 594.804688 L 524.636719 594.839844 C 524.707031 594.839844 524.777344 594.824219 524.839844 594.789062 C 524.902344 594.757812 524.957031 594.710938 524.996094 594.652344 C 525.039062 594.59375 525.066406 594.53125 525.074219 594.457031 C 525.082031 594.386719 525.078125 594.316406 525.050781 594.25 L 519.214844 578.90625 C 519.144531 578.71875 519.007812 578.625 518.804688 578.625 C 518.601562 578.625 518.46875 578.71875 518.394531 578.90625 Z M 512.441406 594.203125 " fill-opacity="1" fill-rule="nonzero"/><path fill="#ff5a1b" d="M 544.480469 546.980469 C 540.710938 546.980469 537.644531 550.046875 537.644531 553.816406 C 537.644531 557.585938 540.710938 560.652344 544.480469 560.652344 C 548.25 560.652344 551.320312 557.585938 551.320312 553.816406 C 551.320312 550.046875 548.25 546.980469 544.480469 546.980469 Z M 544.480469 548.03125 C 547.683594 548.03125 550.265625 550.617188 550.265625 553.816406 C 550.265625 557.015625 547.683594 559.601562 544.480469 559.601562 C 541.28125 559.601562 538.699219 557.015625 538.699219 553.816406 C 538.699219 550.617188 541.28125 548.03125 544.480469 548.03125 Z M 541.851562 550.136719 L 541.851562 557.496094 L 542.90625 557.496094 L 542.90625 555.394531 L 544.21875 555.394531 L 545.769531 557.496094 L 547.078125 557.496094 L 545.394531 555.21875 C 546.394531 554.84375 547.113281 553.886719 547.113281 552.765625 C 547.113281 551.316406 545.929688 550.136719 544.480469 550.136719 Z M 542.90625 551.1875 L 544.480469 551.1875 C 545.359375 551.1875 546.058594 551.886719 546.058594 552.765625 C 546.058594 553.644531 545.359375 554.34375 544.480469 554.34375 L 542.90625 554.34375 Z M 542.90625 551.1875 " fill-opacity="1" fill-rule="nonzero"/></svg>